<svg width="200" height="133" viewBox="0 0 200 133" fill="none" xmlns="http://www.w3.org/2000/svg">
<path d="M86.0924 61.1145L82.6208 56.1663C82.0111 55.3719 81.1842 54.6214 80.1854 55.319C78.6029 56.4235 80.017 58.0132 80.0846 58.114L83.4778 62.9428L80.2979 65.1631L75.9059 58.9088C75.3785 58.1546 75.0119 57.6661 74.2935 56.8229L77.4397 54.6249L78.4722 55.9907L78.5062 55.9695C78.2856 54.3985 79.0937 53.1857 80.3543 52.3013C81.3755 51.5883 82.9058 51.3197 83.9756 52.0961C83.841 50.6929 84.6079 49.3085 85.8499 48.3905C87.6568 47.1292 89.8191 47.3676 91.121 49.2262L95.0677 54.8461L91.8879 57.0665L88.4237 52.1331C87.8139 51.3387 86.9908 50.592 85.9958 51.2858C84.4096 52.3942 85.82 53.9764 85.8836 54.0659L89.2729 58.8948L86.0924 61.1145ZM76.1825 68.0367L75.4792 67.1407C75.3408 68.4878 74.7311 69.4133 73.6536 70.1671C71.8467 71.4284 69.6843 71.19 68.3863 69.3462L64.4319 63.7114L67.6119 61.491L71.0834 66.4355C71.6932 67.2341 72.52 67.9841 73.5189 67.286C75.1014 66.1777 73.691 64.5918 73.6196 64.491L70.2265 59.6622L73.4064 57.4419L77.7983 63.6961C78.3258 64.4503 78.6924 64.9388 79.4107 65.7821L76.1825 68.0367ZM65.1538 75.7202C61.8357 78.0264 57.2828 77.2241 54.9746 73.9141C52.6626 70.6041 53.4819 66.0552 56.8001 63.749L61.136 60.7227L63.5303 64.152L59.6696 66.8276C58.2443 67.8198 57.8926 69.7757 58.884 71.1975C59.8792 72.623 61.8395 72.9738 63.2685 71.9813L67.1367 69.2758L69.5197 72.6904L65.1538 75.7202ZM93.4099 43.4711L94.4425 44.8368L94.4764 44.8157C94.2557 43.2485 95.0638 42.0356 96.3282 41.1513C97.3458 40.4383 98.8796 40.1696 99.9458 40.9461C99.8111 39.543 100.578 38.1585 101.82 37.2406C103.627 35.9793 105.789 36.2177 107.091 38.0762L111.038 43.6961L107.858 45.9164L104.394 40.9832C103.788 40.1845 102.961 39.442 101.966 40.1359C100.38 41.2442 101.79 42.8264 101.854 42.916L105.243 47.7447L102.063 49.9652L98.5916 45.0169C97.9819 44.2182 97.155 43.472 96.16 44.1696C94.5737 45.2742 95.9878 46.8602 96.055 46.9609L99.448 51.7935L96.2682 54.0138L91.8762 47.7557C91.3487 47.0058 90.9821 46.5168 90.2638 45.6735L93.4099 43.4711ZM106.773 28.6563L108.348 30.8991L105.134 33.1418L103.559 30.8991L106.773 28.6563ZM115.242 40.7544L112.063 42.9748L106.159 34.5673L109.339 32.347L115.242 40.7544ZM113.495 29.4438L114.199 30.3397C114.337 28.9926 114.943 28.0671 116.024 27.3134C117.831 26.052 119.994 26.2905 121.288 28.1342L125.242 33.769L122.066 35.9894L118.591 31.0411C117.981 30.2467 117.154 29.4962 116.159 30.1939C114.573 31.3022 115.987 32.8882 116.058 32.9889L119.448 37.8177L116.268 40.038L111.88 33.7838C111.352 33.0296 110.982 32.5411 110.267 31.6977L113.495 29.4438ZM101.861 54.8154H140.438V22.1707H129.421L126.855 23.9769C126.653 23.6934 126.428 23.4765 126.163 23.4205C125.863 23.357 125.512 23.4242 125.074 23.7304C124.603 24.0594 124.505 24.5248 124.846 25.0141C125.28 25.6298 126.552 24.6936 128.987 23.917C130.214 23.533 131.336 23.6705 132.302 25.0403C133.862 27.2681 132.163 29.3018 130.233 30.6489C128.168 32.0931 125.86 33.082 124.079 30.5072L127.098 28.3988C127.225 28.6865 127.509 28.9097 127.846 28.9996C128.187 29.0842 128.572 29.0736 128.875 28.8579C129.496 28.421 129.788 27.873 129.41 27.3354C128.366 25.8464 124 30.2162 121.861 27.1672C120.551 25.305 121.89 23.3832 123.394 22.1667L97.7009 22.1705C97.7009 22.1705 77.1215 21.5696 64.0317 36.0001C64.0317 36.0001 51.8022 46.8256 51.8022 66.5849C51.8022 67.5401 51.8319 68.4433 51.8881 69.3613C51.8956 69.667 52.0902 71.6935 52.2285 72.7682C54.4245 88.6465 64.3757 97.5952 64.3757 97.5952C78.24 111.425 97.4426 110.824 97.4426 110.824H140.438V78.1792H101.689C101.689 78.1792 88.771 78.0946 88.771 66.4991C88.771 55.0726 101.861 54.8154 101.861 54.8154Z" fill="black"/>
<path d="M145.014 108.05V107.121H145.635C145.949 107.121 146.29 107.195 146.29 107.561C146.29 108.024 145.946 108.05 145.56 108.05H145.014ZM145.014 108.434H145.538L146.331 109.732H146.84L145.987 108.415C146.425 108.362 146.765 108.124 146.765 107.59C146.765 106.997 146.413 106.735 145.703 106.735H144.558V109.732H145.014L145.014 108.434ZM145.564 110.833C146.986 110.833 148.198 109.732 148.198 108.229C148.198 106.736 146.986 105.639 145.564 105.639C144.131 105.639 142.919 106.736 142.919 108.229C142.919 109.732 144.131 110.833 145.564 110.833ZM143.443 108.229C143.443 106.997 144.374 106.072 145.564 106.072C146.743 106.072 147.674 106.997 147.674 108.229C147.674 109.479 146.743 110.4 145.564 110.4C144.374 110.4 143.443 109.479 143.443 108.229Z" fill="#231F20"/>
</svg>
