<svg width="154" height="23" viewBox="0 0 154 23" fill="none" xmlns="http://www.w3.org/2000/svg">
<path d="M49.6803 8.7171C49.008 9.62522 47.8831 11.204 47.1986 12.126C46.851 12.5949 46.2234 13.4463 48.3042 13.4463H59.2595C59.2595 13.4463 61.0252 11.0503 62.5055 9.0463C64.5188 6.3202 62.6796 0.647949 55.4814 0.647949H27.1331L22.2179 7.30952H49.0071C50.3596 7.30952 50.3412 7.82296 49.6803 8.7171ZM41.632 15.0897C39.5513 15.0897 40.1789 14.2365 40.5264 13.7676C41.211 12.8456 42.3542 11.2834 43.0265 10.3753C43.6883 9.48115 43.7058 8.96771 42.3516 8.96771H30.0998L20.2281 22.3502H44.3019C52.253 22.3502 56.6798 16.9557 58.0445 15.0905C58.0445 15.0897 43.8327 15.0897 41.632 15.0897ZM57.2926 22.3502H71.4151L76.7689 15.0888L62.6481 15.0905C62.6438 15.0897 57.2926 22.3502 57.2926 22.3502ZM93.7302 0.647949L88.3134 7.98712H82.0106L87.4249 0.647949H73.3067L63.8614 13.4463H98.4039L107.847 0.647949H93.7302ZM77.7178 22.3502H91.835L97.1915 15.0905H83.0742C83.069 15.0897 77.7178 22.3502 77.7178 22.3502ZM0.0769043 17.9537V19.4958H19.7449L20.8812 17.9537H0.0769043ZM22.9952 15.0897H0.0769043V16.63H21.8563L22.9952 15.0897ZM0.0769043 22.3502H17.6379L18.7689 20.8169H0.0769043V22.3502ZM133.198 19.4949H153.923V17.9528H134.336L133.198 19.4949ZM131.092 22.3502H153.923V20.8169H132.222L131.092 22.3502ZM136.446 15.0897L135.311 16.6317H153.923V15.0897H136.446ZM117.955 13.4463L127.399 0.647949H112.447C112.441 0.647949 102.995 13.4463 102.995 13.4463H117.955ZM101.785 15.0897C101.785 15.0897 100.753 16.4964 100.251 17.174C98.4783 19.563 100.046 22.3502 105.832 22.3502H128.506L133.862 15.0905L101.785 15.0897Z" fill="#D50029"/>
</svg>
