<svg width="12" height="12" viewBox="0 0 12 12" fill="none" xmlns="http://www.w3.org/2000/svg">
<path d="M10 5.5C10 3.29086 8.20915 1.5 6 1.5C3.79086 1.5 2 3.29086 2 5.5" stroke="#FDFEFF" stroke-linecap="round" stroke-linejoin="round"/>
<path d="M1 7.71922V6.78082C1 6.32192 1.3123 5.92197 1.75747 5.81067L2.62724 5.59322C2.81658 5.54587 3 5.68907 3 5.88427V8.61577C3 8.81097 2.81658 8.95417 2.62724 8.90682L1.75747 8.68937C1.3123 8.57807 1 8.17812 1 7.71922Z" stroke="#FDFEFF"/>
<path d="M11 7.71922V6.78082C11 6.32192 10.6877 5.92197 10.2425 5.81067L9.37275 5.59322C9.1834 5.54587 9 5.68907 9 5.88427V8.61577C9 8.81097 9.1834 8.95417 9.37275 8.90682L10.2425 8.68937C10.6877 8.57807 11 8.17812 11 7.71922Z" stroke="#FDFEFF"/>
<path d="M10 9V9.25C10 9.8023 9.5523 10.25 9 10.25H7.25" stroke="#FDFEFF"/>
<path d="M6.75 11H5.25C4.83579 11 4.5 10.6642 4.5 10.25C4.5 9.8358 4.83579 9.5 5.25 9.5H6.75C7.1642 9.5 7.5 9.8358 7.5 10.25C7.5 10.6642 7.1642 11 6.75 11Z" stroke="#FDFEFF"/>
</svg>
