<svg width="200" height="133" viewBox="0 0 200 133" fill="none" xmlns="http://www.w3.org/2000/svg">
<path d="M60.496 90.8158H65.3553V98.1651H75.0738V90.8158H79.9331V110.832H75.0738V102.386H65.3553V110.832H60.496V90.8158ZM105.957 100.51V110.676H111.914V100.51C111.914 99.103 112.542 97.6959 113.637 96.7585C114.736 95.663 116.146 95.1943 117.871 95.1943V89.7208C114.578 89.7208 111.757 90.8158 109.406 92.8487C107.055 94.8816 105.957 97.5393 105.957 100.51ZM134.332 100.51C134.332 101.919 133.863 103.167 132.922 104.108C131.979 105.046 130.726 105.671 129.471 105.671C128.06 105.671 126.965 105.201 126.022 104.108C125.082 103.167 124.612 101.92 124.612 100.51C124.612 99.103 125.082 97.853 126.022 96.9151C126.965 95.9766 128.217 95.5059 129.471 95.5059C130.884 95.5059 131.979 95.9766 132.922 97.0701C133.863 98.008 134.332 99.2575 134.332 100.667V100.51ZM129.471 90.3445C126.65 90.3445 124.299 91.2845 122.418 93.3153C120.535 95.3488 119.44 97.6959 119.44 100.51C119.44 103.323 120.38 105.827 122.418 107.704C124.299 109.737 126.65 110.675 129.471 110.675C132.294 110.675 134.645 109.737 136.526 107.704C138.406 105.671 139.504 103.323 139.504 100.51C139.504 97.6959 138.564 95.1932 136.526 93.3153C134.645 91.2845 132.294 90.3445 129.471 90.3445ZM95.7663 39.0557L82.2861 29.8296V69.0796L95.7663 77.6794V39.0557Z" fill="#D9241C"/>
<path d="M117.714 31.2363L104.077 22.1667V48.438L117.714 40.4629V31.2363ZM118.029 69.7039V50.9401L105.017 59.5404V61.1046L118.029 69.7039Z" fill="black"/>
<path d="M102.666 101.448H90.1242V102.544C90.1242 104.262 90.4371 105.514 91.0644 106.139C91.6918 106.767 92.4751 107.079 93.4153 107.079C95.4533 107.079 96.5511 105.984 96.864 103.639L102.821 103.951C101.723 108.486 98.5896 110.833 93.4153 110.833C90.1236 110.833 87.7727 109.893 86.0476 108.172C84.322 106.296 83.5392 103.951 83.5392 100.98C83.5392 97.5398 84.4795 95.0377 86.2051 93.1619C87.9281 91.4406 90.4365 90.5027 93.4153 90.5027C96.0812 90.5027 98.4321 91.2856 100.157 92.8498C102.038 94.4114 102.821 97.3833 102.821 101.606L102.666 101.448ZM96.3941 98.3201V97.853C96.3941 95.3488 95.2964 94.0988 93.2578 94.0988C91.2219 94.0988 90.1242 95.5059 90.1242 98.4772H96.2366L96.3941 98.3201Z" fill="#D9241C"/>
</svg>
