<svg width="12" height="12" viewBox="0 0 12 12" fill="none" xmlns="http://www.w3.org/2000/svg">
<g clip-path="url(#clip0_243_149)">
<path d="M8.25 8.25V10.5H2.25V1.5H6V0.75H2.25C2.05109 0.75 1.86032 0.829018 1.71967 0.96967C1.57902 1.11032 1.5 1.30109 1.5 1.5V10.5C1.5 10.6989 1.57902 10.8897 1.71967 11.0303C1.86032 11.171 2.05109 11.25 2.25 11.25H8.25C8.44891 11.25 8.63968 11.171 8.78033 11.0303C8.92098 10.8897 9 10.6989 9 10.5V8.25H8.25Z" fill="#FDFEFF"/>
<path d="M11.0775 2.15999L9.84 0.922491C9.72784 0.812555 9.57705 0.750977 9.42 0.750977C9.26295 0.750977 9.11216 0.812555 9 0.922491L3.75 6.17249V8.24999H5.82375L11.0738 2.99999C11.1837 2.88783 11.2453 2.73704 11.2453 2.57999C11.2453 2.42294 11.1837 2.27215 11.0738 2.15999H11.0775ZM5.5125 7.49999H4.5V6.48749L8.04 2.94374L9.05625 3.95999L5.5125 7.49999ZM9.585 3.43124L8.56875 2.41499L9.42 1.56374L10.4362 2.57999L9.585 3.43124Z" fill="#FDFEFF"/>
</g>
<defs>
<clipPath id="clip0_243_149">
<rect width="12" height="12" fill="white"/>
</clipPath>
</defs>
</svg>
