<svg width="32" height="32" viewBox="0 0 32 32" fill="none" xmlns="http://www.w3.org/2000/svg">
<path d="M30.0533 8.56016C29.8949 7.92738 29.5723 7.34759 29.1182 6.87937C28.664 6.41115 28.0943 6.07108 27.4666 5.8935C25.1733 5.3335 15.9999 5.3335 15.9999 5.3335C15.9999 5.3335 6.82662 5.3335 4.53328 5.94683C3.90561 6.12441 3.33592 6.46448 2.88174 6.9327C2.42757 7.40093 2.105 7.98071 1.94662 8.6135C1.5269 10.9409 1.3216 13.3019 1.33328 15.6668C1.31832 18.0496 1.52364 20.4286 1.94662 22.7735C2.12123 23.3866 2.45102 23.9444 2.90414 24.3928C3.35726 24.8412 3.91838 25.1652 4.53328 25.3335C6.82662 25.9468 15.9999 25.9468 15.9999 25.9468C15.9999 25.9468 25.1733 25.9468 27.4666 25.3335C28.0943 25.1559 28.664 24.8158 29.1182 24.3476C29.5723 23.8794 29.8949 23.2996 30.0533 22.6668C30.4698 20.3569 30.675 18.0139 30.6666 15.6668C30.6816 13.2841 30.4763 10.9051 30.0533 8.56016Z" stroke="#00233B" stroke-width="2" stroke-linecap="round" stroke-linejoin="round"/>
<path d="M13 20.0266L20.6667 15.6666L13 11.3066V20.0266Z" stroke="#00233B" stroke-width="2" stroke-linecap="round" stroke-linejoin="round"/>
</svg>
